<?xml version="1.0" encoding="UTF-8" standalone="no"?>
<!DOCTYPE svg PUBLIC "-//W3C//DTD SVG 1.1//EN"
 "http://www.w3.org/Graphics/SVG/1.1/DTD/svg11.dtd">
<!-- Generated by graphviz version 2.43.0 (0)
 -->
<!-- Title: dependency&#45;cruiser output Pages: 1 -->
<svg width="643pt" height="570pt"
 viewBox="0.00 0.00 643.00 570.00" xmlns="http://www.w3.org/2000/svg" xmlns:xlink="http://www.w3.org/1999/xlink">
<g id="graph0" class="graph" transform="scale(1 1) rotate(0) translate(4 566)">
<title>dependency&#45;cruiser output</title>
<polygon fill="white" stroke="transparent" points="-4,4 -4,-566 639,-566 639,4 -4,4"/>
<g id="clust1" class="cluster">
<title>cluster_@modules</title>
<path fill="#ffffff" stroke="black" stroke-width="2" d="M317,-128C317,-128 398,-128 398,-128 404,-128 410,-134 410,-140 410,-140 410,-202 410,-202 410,-208 404,-214 398,-214 398,-214 317,-214 317,-214 311,-214 305,-208 305,-202 305,-202 305,-140 305,-140 305,-134 311,-128 317,-128"/>
<text text-anchor="middle" x="357.5" y="-202.8" font-family="Helvetica,sans-Serif" font-weight="bold" font-size="9.00">@modules</text>
</g>
<g id="clust2" class="cluster">
<title>cluster_@modules/profile</title>
<path fill="#ffffff" stroke="black" stroke-width="2" d="M325,-136C325,-136 390,-136 390,-136 396,-136 402,-142 402,-148 402,-148 402,-176 402,-176 402,-182 396,-188 390,-188 390,-188 325,-188 325,-188 319,-188 313,-182 313,-176 313,-176 313,-148 313,-148 313,-142 319,-136 325,-136"/>
<text text-anchor="middle" x="357.5" y="-176.8" font-family="Helvetica,sans-Serif" font-weight="bold" font-size="9.00">profile</text>
</g>
<g id="clust3" class="cluster">
<title>cluster_public</title>
<path fill="#ffffff" stroke="black" stroke-width="2" d="M106,-8C106,-8 204,-8 204,-8 210,-8 216,-14 216,-20 216,-20 216,-202 216,-202 216,-208 210,-214 204,-214 204,-214 106,-214 106,-214 100,-214 94,-208 94,-202 94,-202 94,-20 94,-20 94,-14 100,-8 106,-8"/>
<text text-anchor="middle" x="155" y="-202.8" font-family="Helvetica,sans-Serif" font-weight="bold" font-size="9.00">public</text>
</g>
<g id="clust4" class="cluster">
<title>cluster_public/css</title>
<path fill="#ffffff" stroke="black" stroke-width="2" d="M114,-16C114,-16 196,-16 196,-16 202,-16 208,-22 208,-28 208,-28 208,-176 208,-176 208,-182 202,-188 196,-188 196,-188 114,-188 114,-188 108,-188 102,-182 102,-176 102,-176 102,-28 102,-28 102,-22 108,-16 114,-16"/>
<text text-anchor="middle" x="155" y="-176.8" font-family="Helvetica,sans-Serif" font-weight="bold" font-size="9.00">css</text>
</g>
<g id="clust5" class="cluster">
<title>cluster_src</title>
<path fill="#ffffff" stroke="black" stroke-width="2" d="M20,-222C20,-222 615,-222 615,-222 621,-222 627,-228 627,-234 627,-234 627,-542 627,-542 627,-548 621,-554 615,-554 615,-554 20,-554 20,-554 14,-554 8,-548 8,-542 8,-542 8,-234 8,-234 8,-228 14,-222 20,-222"/>
<text text-anchor="middle" x="317.5" y="-542.8" font-family="Helvetica,sans-Serif" font-weight="bold" font-size="9.00">src</text>
</g>
<g id="clust6" class="cluster">
<title>cluster_src/js</title>
<path fill="#ffffff" stroke="black" stroke-width="2" d="M28,-290C28,-290 607,-290 607,-290 613,-290 619,-296 619,-302 619,-302 619,-416 619,-416 619,-422 613,-428 607,-428 607,-428 28,-428 28,-428 22,-428 16,-422 16,-416 16,-416 16,-302 16,-302 16,-296 22,-290 28,-290"/>
<text text-anchor="middle" x="317.5" y="-416.8" font-family="Helvetica,sans-Serif" font-weight="bold" font-size="9.00">js</text>
</g>
<g id="clust7" class="cluster">
<title>cluster_src/modules</title>
<path fill="#ffffff" stroke="black" stroke-width="2" d="M236,-444C236,-444 470,-444 470,-444 476,-444 482,-450 482,-456 482,-456 482,-516 482,-516 482,-522 476,-528 470,-528 470,-528 236,-528 236,-528 230,-528 224,-522 224,-516 224,-516 224,-456 224,-456 224,-450 230,-444 236,-444"/>
<text text-anchor="middle" x="353" y="-516.8" font-family="Helvetica,sans-Serif" font-weight="bold" font-size="9.00">modules</text>
</g>
<g id="clust8" class="cluster">
<title>cluster_src/types</title>
<path fill="#ffffff" stroke="black" stroke-width="2" d="M28,-230C28,-230 74,-230 74,-230 80,-230 86,-236 86,-242 86,-242 86,-270 86,-270 86,-276 80,-282 74,-282 74,-282 28,-282 28,-282 22,-282 16,-276 16,-270 16,-270 16,-242 16,-242 16,-236 22,-230 28,-230"/>
<text text-anchor="start" x="36.5" y="-270.8" font-family="Helvetica,sans-Serif" font-weight="bold" font-size="9.00">types</text>
</g>
<!-- @modules/profile/components/ -->
<g id="node1" class="node">
<title>@modules/profile/components/</title>
<g id="a_node1"><a xlink:title="components">
<polygon fill="#ffffcc" stroke="black" points="394,-162 323,-162 321,-160 321,-144 392,-144 394,-146 394,-162"/>
<polyline fill="none" stroke="black" points="392,-160 321,-160 "/>
<polyline fill="none" stroke="black" points="392,-160 392,-144 "/>
<polyline fill="none" stroke="black" points="392,-160 394,-162 "/>
<text text-anchor="start" x="329" y="-150.8" font-family="Helvetica,sans-Serif" font-size="9.00">components</text>
</a>
</g>
</g>
<!-- public/css/auth.css -->
<g id="node2" class="node">
<title>public/css/auth.css</title>
<g id="a_node2"><a xlink:href="public/css/auth.css" xlink:title="auth.css">
<path fill="#ffffcc" stroke="black" d="M176.5,-162C176.5,-162 133.5,-162 133.5,-162 130.5,-162 127.5,-159 127.5,-156 127.5,-156 127.5,-150 127.5,-150 127.5,-147 130.5,-144 133.5,-144 133.5,-144 176.5,-144 176.5,-144 179.5,-144 182.5,-147 182.5,-150 182.5,-150 182.5,-156 182.5,-156 182.5,-159 179.5,-162 176.5,-162"/>
<text text-anchor="start" x="135.5" y="-150.8" font-family="Helvetica,sans-Serif" font-size="9.00">auth.css</text>
</a>
</g>
</g>
<!-- public/css/base.css -->
<g id="node3" class="node">
<title>public/css/base.css</title>
<g id="a_node3"><a xlink:href="public/css/base.css" xlink:title="base.css">
<path fill="#ffffcc" stroke="black" d="M176.5,-132C176.5,-132 133.5,-132 133.5,-132 130.5,-132 127.5,-129 127.5,-126 127.5,-126 127.5,-120 127.5,-120 127.5,-117 130.5,-114 133.5,-114 133.5,-114 176.5,-114 176.5,-114 179.5,-114 182.5,-117 182.5,-120 182.5,-120 182.5,-126 182.5,-126 182.5,-129 179.5,-132 176.5,-132"/>
<text text-anchor="start" x="135.5" y="-120.8" font-family="Helvetica,sans-Serif" font-size="9.00">base.css</text>
</a>
</g>
</g>
<!-- public/css/components.css -->
<g id="node4" class="node">
<title>public/css/components.css</title>
<g id="a_node4"><a xlink:href="public/css/components.css" xlink:title="components.css">
<path fill="#ffffcc" stroke="black" d="M194,-102C194,-102 116,-102 116,-102 113,-102 110,-99 110,-96 110,-96 110,-90 110,-90 110,-87 113,-84 116,-84 116,-84 194,-84 194,-84 197,-84 200,-87 200,-90 200,-90 200,-96 200,-96 200,-99 197,-102 194,-102"/>
<text text-anchor="start" x="118" y="-90.8" font-family="Helvetica,sans-Serif" font-size="9.00">components.css</text>
</a>
</g>
</g>
<!-- public/css/footer.css -->
<g id="node5" class="node">
<title>public/css/footer.css</title>
<g id="a_node5"><a xlink:href="public/css/footer.css" xlink:title="footer.css">
<path fill="#ffffcc" stroke="black" d="M178.5,-72C178.5,-72 131.5,-72 131.5,-72 128.5,-72 125.5,-69 125.5,-66 125.5,-66 125.5,-60 125.5,-60 125.5,-57 128.5,-54 131.5,-54 131.5,-54 178.5,-54 178.5,-54 181.5,-54 184.5,-57 184.5,-60 184.5,-60 184.5,-66 184.5,-66 184.5,-69 181.5,-72 178.5,-72"/>
<text text-anchor="start" x="133.5" y="-60.8" font-family="Helvetica,sans-Serif" font-size="9.00">footer.css</text>
</a>
</g>
</g>
<!-- public/css/main.css -->
<g id="node6" class="node">
<title>public/css/main.css</title>
<g id="a_node6"><a xlink:href="public/css/main.css" xlink:title="main.css">
<path fill="#ffffcc" stroke="black" d="M177,-42C177,-42 133,-42 133,-42 130,-42 127,-39 127,-36 127,-36 127,-30 127,-30 127,-27 130,-24 133,-24 133,-24 177,-24 177,-24 180,-24 183,-27 183,-30 183,-30 183,-36 183,-36 183,-39 180,-42 177,-42"/>
<text text-anchor="start" x="135" y="-30.8" font-family="Helvetica,sans-Serif" font-size="9.00">main.css</text>
</a>
</g>
</g>
<!-- src/js/actions/ -->
<g id="node7" class="node">
<title>src/js/actions/</title>
<g id="a_node7"><a xlink:href="src/js/actions/" xlink:title="actions">
<polygon fill="#ffffcc" stroke="black" points="291.5,-344 239.5,-344 237.5,-342 237.5,-326 289.5,-326 291.5,-328 291.5,-344"/>
<polyline fill="none" stroke="black" points="289.5,-342 237.5,-342 "/>
<polyline fill="none" stroke="black" points="289.5,-342 289.5,-326 "/>
<polyline fill="none" stroke="black" points="289.5,-342 291.5,-344 "/>
<text text-anchor="start" x="248" y="-332.8" font-family="Helvetica,sans-Serif" font-size="9.00">actions</text>
</a>
</g>
</g>
<!-- src/js/core/ -->
<g id="node8" class="node">
<title>src/js/core/</title>
<g id="a_node8"><a xlink:href="src/js/core/" xlink:title="core">
<polygon fill="#ffffcc" stroke="black" points="544,-380 492,-380 490,-378 490,-362 542,-362 544,-364 544,-380"/>
<polyline fill="none" stroke="black" points="542,-378 490,-378 "/>
<polyline fill="none" stroke="black" points="542,-378 542,-362 "/>
<polyline fill="none" stroke="black" points="542,-378 544,-380 "/>
<text text-anchor="start" x="507" y="-368.8" font-family="Helvetica,sans-Serif" font-size="9.00">core</text>
</a>
</g>
</g>
<!-- src/js/actions/&#45;&gt;src/js/core/ -->
<g id="edge1" class="edge">
<title>src/js/actions/&#45;&gt;src/js/core/</title>
<path fill="none" stroke="#000000" stroke-width="2" stroke-opacity="0.200000" d="M291.65,-335.86C341.21,-337.71 446.98,-342.74 482,-353 486.87,-354.43 491.84,-356.59 496.42,-358.93"/>
<polygon fill="#000000" fill-opacity="0.200000" stroke="#000000" stroke-width="2" stroke-opacity="0.200000" points="495.71,-360.93 501.99,-361.94 497.71,-357.24 495.71,-360.93"/>
</g>
<!-- src/js/services/ -->
<g id="node9" class="node">
<title>src/js/services/</title>
<g id="a_node9"><a xlink:href="src/js/services/" xlink:title="services">
<polygon fill="#ffffcc" stroke="black" points="384.5,-388 332.5,-388 330.5,-386 330.5,-370 382.5,-370 384.5,-372 384.5,-388"/>
<polyline fill="none" stroke="black" points="382.5,-386 330.5,-386 "/>
<polyline fill="none" stroke="black" points="382.5,-386 382.5,-370 "/>
<polyline fill="none" stroke="black" points="382.5,-386 384.5,-388 "/>
<text text-anchor="start" x="339" y="-376.8" font-family="Helvetica,sans-Serif" font-size="9.00">services</text>
</a>
</g>
</g>
<!-- src/js/actions/&#45;&gt;src/js/services/ -->
<g id="edge2" class="edge">
<title>src/js/actions/&#45;&gt;src/js/services/</title>
<path fill="none" stroke="#000000" stroke-width="2" stroke-opacity="0.200000" d="M284.36,-344.12C298.14,-350.78 316.97,-359.89 331.93,-367.12"/>
<polygon fill="#000000" fill-opacity="0.200000" stroke="#000000" stroke-width="2" stroke-opacity="0.200000" points="331.35,-369.17 337.67,-369.89 333.18,-365.39 331.35,-369.17"/>
</g>
<!-- src/js/validators/ -->
<g id="node10" class="node">
<title>src/js/validators/</title>
<g id="a_node10"><a xlink:href="src/js/validators/" xlink:title="validators">
<polygon fill="#ffffcc" stroke="black" points="387.5,-330 329.5,-330 327.5,-328 327.5,-312 385.5,-312 387.5,-314 387.5,-330"/>
<polyline fill="none" stroke="black" points="385.5,-328 327.5,-328 "/>
<polyline fill="none" stroke="black" points="385.5,-328 385.5,-312 "/>
<polyline fill="none" stroke="black" points="385.5,-328 387.5,-330 "/>
<text text-anchor="start" x="335.5" y="-318.8" font-family="Helvetica,sans-Serif" font-size="9.00">validators</text>
</a>
</g>
</g>
<!-- src/js/actions/&#45;&gt;src/js/validators/ -->
<g id="edge3" class="edge">
<title>src/js/actions/&#45;&gt;src/js/validators/</title>
<path fill="none" stroke="#000000" stroke-width="2" stroke-opacity="0.200000" d="M291.82,-330.95C301.04,-329.53 311.54,-327.92 321.36,-326.41"/>
<polygon fill="#000000" fill-opacity="0.200000" stroke="#000000" stroke-width="2" stroke-opacity="0.200000" points="321.76,-328.47 327.37,-325.48 321.12,-324.32 321.76,-328.47"/>
</g>
<!-- src/js/utils/ -->
<g id="node12" class="node">
<title>src/js/utils/</title>
<g id="a_node12"><a xlink:href="src/js/utils/" xlink:title="no&#45;orphans">
<polygon fill="#ccffcc" stroke="orange" points="611,-380 559,-380 557,-378 557,-362 609,-362 611,-364 611,-380"/>
<polyline fill="none" stroke="orange" points="609,-378 557,-378 "/>
<polyline fill="none" stroke="orange" points="609,-378 609,-362 "/>
<polyline fill="none" stroke="orange" points="609,-378 611,-380 "/>
<text text-anchor="start" x="574.5" y="-368.8" font-family="Helvetica,sans-Serif" font-size="9.00" fill="orange">utils</text>
</a>
</g>
</g>
<!-- src/js/core/&#45;&gt;src/js/utils/ -->
<g id="edge10" class="edge">
<title>src/js/core/&#45;&gt;src/js/utils/</title>
<path fill="none" stroke="#000000" stroke-width="2" stroke-opacity="0.200000" d="M544.06,-371C546.32,-371 548.61,-371 550.9,-371"/>
<polygon fill="#000000" fill-opacity="0.200000" stroke="#000000" stroke-width="2" stroke-opacity="0.200000" points="550.93,-373.1 556.93,-371 550.93,-368.9 550.93,-373.1"/>
</g>
<!-- src/js/services/&#45;&gt;src/js/core/ -->
<g id="edge23" class="edge">
<title>src/js/services/&#45;&gt;src/js/core/</title>
<path fill="none" stroke="#000000" stroke-width="2" stroke-opacity="0.200000" d="M384.51,-377.68C411.75,-376.3 454.58,-374.12 483.91,-372.63"/>
<polygon fill="#000000" fill-opacity="0.200000" stroke="#000000" stroke-width="2" stroke-opacity="0.200000" points="484.07,-374.72 489.95,-372.32 483.85,-370.53 484.07,-374.72"/>
</g>
<!-- src/js/api/ -->
<g id="node11" class="node">
<title>src/js/api/</title>
<g id="a_node11"><a xlink:href="src/js/api/" xlink:title="api">
<polygon fill="#ffffcc" stroke="black" points="473,-402 421,-402 419,-400 419,-384 471,-384 473,-386 473,-402"/>
<polyline fill="none" stroke="black" points="471,-400 419,-400 "/>
<polyline fill="none" stroke="black" points="471,-400 471,-384 "/>
<polyline fill="none" stroke="black" points="471,-400 473,-402 "/>
<text text-anchor="start" x="439" y="-390.8" font-family="Helvetica,sans-Serif" font-size="9.00">api</text>
</a>
</g>
</g>
<!-- src/js/services/&#45;&gt;src/js/api/ -->
<g id="edge22" class="edge">
<title>src/js/services/&#45;&gt;src/js/api/</title>
<path fill="none" stroke="#000000" stroke-width="2" stroke-opacity="0.200000" d="M384.92,-383.28C393.64,-384.69 403.44,-386.27 412.56,-387.75"/>
<polygon fill="#000000" fill-opacity="0.200000" stroke="#000000" stroke-width="2" stroke-opacity="0.200000" points="412.48,-389.86 418.74,-388.75 413.15,-385.72 412.48,-389.86"/>
</g>
<!-- src/js/api/&#45;&gt;src/js/core/ -->
<g id="edge4" class="edge">
<title>src/js/api/&#45;&gt;src/js/core/</title>
<path fill="none" stroke="#000000" stroke-width="2" stroke-opacity="0.200000" d="M473.09,-384.68C476.69,-383.53 480.43,-382.34 484.13,-381.16"/>
<polygon fill="#000000" fill-opacity="0.200000" stroke="#000000" stroke-width="2" stroke-opacity="0.200000" points="484.8,-383.15 489.88,-379.33 483.52,-379.15 484.8,-383.15"/>
</g>
<!-- src/js/api/&#45;&gt;src/js/utils/ -->
<g id="edge5" class="edge">
<title>src/js/api/&#45;&gt;src/js/utils/</title>
<path fill="none" stroke="#000000" stroke-width="2" stroke-opacity="0.200000" d="M473.24,-393.19C492.93,-392.83 520.44,-391.26 544,-386 548.28,-385.04 552.72,-383.7 557,-382.21"/>
<polygon fill="#000000" fill-opacity="0.200000" stroke="#000000" stroke-width="2" stroke-opacity="0.200000" points="557.8,-384.15 562.71,-380.1 556.35,-380.21 557.8,-384.15"/>
</g>
<!-- src/js/controllers/ -->
<g id="node13" class="node">
<title>src/js/controllers/</title>
<g id="a_node13"><a xlink:href="src/js/controllers/" xlink:title="controllers">
<polygon fill="#ffffcc" stroke="black" points="187,-388 125,-388 123,-386 123,-370 185,-370 187,-372 187,-388"/>
<polyline fill="none" stroke="black" points="185,-386 123,-386 "/>
<polyline fill="none" stroke="black" points="185,-386 185,-370 "/>
<polyline fill="none" stroke="black" points="185,-386 187,-388 "/>
<text text-anchor="start" x="131" y="-376.8" font-family="Helvetica,sans-Serif" font-size="9.00">controllers</text>
</a>
</g>
</g>
<!-- src/js/controllers/&#45;&gt;src/js/actions/ -->
<g id="edge6" class="edge">
<title>src/js/controllers/&#45;&gt;src/js/actions/</title>
<path fill="none" stroke="#000000" stroke-width="2" stroke-opacity="0.200000" d="M178.01,-369.99C194.57,-363.21 217.39,-353.87 235.28,-346.55"/>
<polygon fill="#000000" fill-opacity="0.200000" stroke="#000000" stroke-width="2" stroke-opacity="0.200000" points="236.39,-348.37 241.15,-344.15 234.8,-344.48 236.39,-348.37"/>
</g>
<!-- src/js/controllers/&#45;&gt;src/js/core/ -->
<g id="edge7" class="edge">
<title>src/js/controllers/&#45;&gt;src/js/core/</title>
<path fill="none" stroke="#000000" stroke-width="2" stroke-opacity="0.200000" d="M187.04,-374.96C217.13,-371.26 264.1,-366.05 305,-364 351.61,-361.66 363.36,-362.46 410,-364 434.83,-364.82 462.88,-366.71 483.88,-368.33"/>
<polygon fill="#000000" fill-opacity="0.200000" stroke="#000000" stroke-width="2" stroke-opacity="0.200000" points="483.74,-370.42 489.89,-368.79 484.07,-366.23 483.74,-370.42"/>
</g>
<!-- src/modules/cart/ -->
<g id="node14" class="node">
<title>src/modules/cart/</title>
<g id="a_node14"><a xlink:href="src/modules/cart/" xlink:title="no&#45;orphans">
<polygon fill="#ccffcc" stroke="orange" points="384.5,-502 332.5,-502 330.5,-500 330.5,-484 382.5,-484 384.5,-486 384.5,-502"/>
<polyline fill="none" stroke="orange" points="382.5,-500 330.5,-500 "/>
<polyline fill="none" stroke="orange" points="382.5,-500 382.5,-484 "/>
<polyline fill="none" stroke="orange" points="382.5,-500 384.5,-502 "/>
<text text-anchor="start" x="348" y="-490.8" font-family="Helvetica,sans-Serif" font-size="9.00" fill="orange">cart</text>
</a>
</g>
</g>
<!-- src/js/controllers/&#45;&gt;src/modules/cart/ -->
<g id="edge8" class="edge">
<title>src/js/controllers/&#45;&gt;src/modules/cart/</title>
<path fill="none" stroke="#000000" stroke-width="2" stroke-opacity="0.200000" d="M157.64,-388.25C162.54,-412.78 179.58,-479.4 224,-506 256.58,-525.51 301.92,-514.62 330.22,-504.32"/>
<polygon fill="#000000" fill-opacity="0.200000" stroke="#000000" stroke-width="2" stroke-opacity="0.200000" points="331.12,-506.22 335.99,-502.14 329.64,-502.29 331.12,-506.22"/>
</g>
<!-- src/modules/seller&#45;page/ -->
<g id="node15" class="node">
<title>src/modules/seller&#45;page/</title>
<g id="a_node15"><a xlink:href="src/modules/seller-page/" xlink:title="no&#45;orphans">
<polygon fill="#ccffcc" stroke="orange" points="297,-500 234,-500 232,-498 232,-482 295,-482 297,-484 297,-500"/>
<polyline fill="none" stroke="orange" points="295,-498 232,-498 "/>
<polyline fill="none" stroke="orange" points="295,-498 295,-482 "/>
<polyline fill="none" stroke="orange" points="295,-498 297,-500 "/>
<text text-anchor="start" x="240" y="-488.8" font-family="Helvetica,sans-Serif" font-size="9.00" fill="orange">seller&#45;page</text>
</a>
</g>
</g>
<!-- src/js/controllers/&#45;&gt;src/modules/seller&#45;page/ -->
<g id="edge9" class="edge">
<title>src/js/controllers/&#45;&gt;src/modules/seller&#45;page/</title>
<path fill="none" stroke="#000000" stroke-width="2" stroke-opacity="0.200000" d="M160.08,-388.12C168.99,-407.09 192.02,-451.12 224,-476 225.36,-477.06 226.8,-478.04 228.29,-478.97"/>
<polygon fill="#000000" fill-opacity="0.200000" stroke="#000000" stroke-width="2" stroke-opacity="0.200000" points="227.29,-480.81 233.56,-481.87 229.31,-477.13 227.29,-480.81"/>
</g>
<!-- src/modules/cart/&#45;&gt;src/js/core/ -->
<g id="edge24" class="edge">
<title>src/modules/cart/&#45;&gt;src/js/core/</title>
<path fill="none" stroke="#000000" stroke-width="2" stroke-opacity="0.200000" d="M384.75,-486.36C420.73,-477.23 481.08,-461.83 482,-461 503.78,-441.45 511.67,-406.51 514.48,-386.4"/>
<polygon fill="#000000" fill-opacity="0.200000" stroke="#000000" stroke-width="2" stroke-opacity="0.200000" points="516.6,-386.4 515.26,-380.19 512.43,-385.88 516.6,-386.4"/>
</g>
<!-- src/modules/cart/&#45;&gt;src/js/api/ -->
<g id="edge25" class="edge">
<title>src/modules/cart/&#45;&gt;src/js/api/</title>
<path fill="none" stroke="#000000" stroke-width="2" stroke-opacity="0.200000" d="M366.48,-483.77C381.74,-466.13 415.11,-427.56 433.04,-406.83"/>
<polygon fill="#000000" fill-opacity="0.200000" stroke="#000000" stroke-width="2" stroke-opacity="0.200000" points="434.7,-408.12 437.04,-402.21 431.52,-405.37 434.7,-408.12"/>
</g>
<!-- src/modules/common/ -->
<g id="node19" class="node">
<title>src/modules/common/</title>
<g id="a_node19"><a xlink:href="src/modules/common/" xlink:title="common">
<polygon fill="#ffffcc" stroke="black" points="474,-502 420,-502 418,-500 418,-484 472,-484 474,-486 474,-502"/>
<polyline fill="none" stroke="black" points="472,-500 418,-500 "/>
<polyline fill="none" stroke="black" points="472,-500 472,-484 "/>
<polyline fill="none" stroke="black" points="472,-500 474,-502 "/>
<text text-anchor="start" x="426" y="-490.8" font-family="Helvetica,sans-Serif" font-size="9.00">common</text>
</a>
</g>
</g>
<!-- src/modules/cart/&#45;&gt;src/modules/common/ -->
<g id="edge26" class="edge">
<title>src/modules/cart/&#45;&gt;src/modules/common/</title>
<path fill="none" stroke="#000000" stroke-width="2" stroke-opacity="0.200000" d="M384.92,-493C393.4,-493 402.9,-493 411.8,-493"/>
<polygon fill="#000000" fill-opacity="0.200000" stroke="#000000" stroke-width="2" stroke-opacity="0.200000" points="411.84,-495.1 417.84,-493 411.84,-490.9 411.84,-495.1"/>
</g>
<!-- src/modules/seller&#45;page/&#45;&gt;src/js/core/ -->
<g id="edge31" class="edge">
<title>src/modules/seller&#45;page/&#45;&gt;src/js/core/</title>
<path fill="none" stroke="#000000" stroke-width="2" stroke-opacity="0.200000" d="M287.07,-481.95C290.5,-480.16 293.93,-478.17 297,-476 301.11,-473.1 300.6,-470.43 305,-468 376.23,-428.62 416.78,-469.7 482,-421 494.32,-411.8 503.67,-396.76 509.42,-385.57"/>
<polygon fill="#000000" fill-opacity="0.200000" stroke="#000000" stroke-width="2" stroke-opacity="0.200000" points="511.33,-386.44 512.09,-380.13 507.56,-384.59 511.33,-386.44"/>
</g>
<!-- src/modules/seller&#45;page/&#45;&gt;src/js/api/ -->
<g id="edge33" class="edge">
<title>src/modules/seller&#45;page/&#45;&gt;src/js/api/</title>
<path fill="none" stroke="#000000" stroke-width="2" stroke-opacity="0.200000" d="M289.94,-481.87C292.55,-480.2 294.98,-478.26 297,-476 304.22,-467.94 297.26,-460.57 305,-453 340.06,-418.69 366.4,-441.48 410,-419 416.8,-415.49 423.69,-410.7 429.53,-406.19"/>
<polygon fill="#000000" fill-opacity="0.200000" stroke="#000000" stroke-width="2" stroke-opacity="0.200000" points="431.19,-407.55 434.57,-402.17 428.57,-404.27 431.19,-407.55"/>
</g>
<!-- src/modules/seller&#45;page/&#45;&gt;src/modules/cart/ -->
<g id="edge32" class="edge">
<title>src/modules/seller&#45;page/&#45;&gt;src/modules/cart/</title>
<path fill="none" stroke="#000000" stroke-width="2" stroke-opacity="0.200000" d="M297.07,-491.69C305.91,-491.89 315.53,-492.1 324.41,-492.29"/>
<polygon fill="#000000" fill-opacity="0.200000" stroke="#000000" stroke-width="2" stroke-opacity="0.200000" points="324.36,-494.39 330.41,-492.43 324.46,-490.2 324.36,-494.39"/>
</g>
<!-- src/modules/seller&#45;page/&#45;&gt;src/modules/common/ -->
<g id="edge34" class="edge">
<title>src/modules/seller&#45;page/&#45;&gt;src/modules/common/</title>
<path fill="none" stroke="#000000" stroke-width="2" stroke-opacity="0.200000" d="M289.01,-481.91C294.2,-480.29 299.72,-478.85 305,-478 351.08,-470.61 364.29,-468.62 410,-478 414,-478.82 418.11,-480.12 422.05,-481.62"/>
<polygon fill="#000000" fill-opacity="0.200000" stroke="#000000" stroke-width="2" stroke-opacity="0.200000" points="421.3,-483.58 427.65,-483.92 422.9,-479.7 421.3,-483.58"/>
</g>
<!-- src/js/main.ts -->
<g id="node16" class="node">
<title>src/js/main.ts</title>
<g id="a_node16"><a xlink:href="src/js/main.ts" xlink:title="main.ts">
<path fill="#ddfeff" stroke="black" d="M72,-376C72,-376 30,-376 30,-376 27,-376 24,-373 24,-370 24,-370 24,-364 24,-364 24,-361 27,-358 30,-358 30,-358 72,-358 72,-358 75,-358 78,-361 78,-364 78,-364 78,-370 78,-370 78,-373 75,-376 72,-376"/>
<text text-anchor="start" x="34" y="-364.8" font-family="Helvetica,sans-Serif" font-size="9.00">main.ts</text>
</a>
</g>
</g>
<!-- src/js/main.ts&#45;&gt;public/css/auth.css -->
<g id="edge16" class="edge">
<title>src/js/main.ts&#45;&gt;public/css/auth.css</title>
<path fill="none" stroke="#000000" stroke-width="2" stroke-opacity="0.200000" d="M78.22,-358.94C81.21,-357.08 83.92,-354.8 86,-352 94.68,-340.32 90.09,-301.02 94,-287 106.68,-241.5 132.44,-191.66 145.7,-167.61"/>
<polygon fill="#000000" fill-opacity="0.200000" stroke="#000000" stroke-width="2" stroke-opacity="0.200000" points="147.7,-168.33 148.79,-162.06 144.03,-166.28 147.7,-168.33"/>
</g>
<!-- src/js/main.ts&#45;&gt;public/css/base.css -->
<g id="edge17" class="edge">
<title>src/js/main.ts&#45;&gt;public/css/base.css</title>
<path fill="none" stroke="#000000" stroke-width="2" stroke-opacity="0.200000" d="M78.12,-359.31C81.2,-357.39 83.97,-354.99 86,-352 99.36,-332.31 79.01,-156.48 94,-138 100.67,-129.78 111.11,-125.66 121.42,-123.71"/>
<polygon fill="#000000" fill-opacity="0.200000" stroke="#000000" stroke-width="2" stroke-opacity="0.200000" points="121.83,-125.77 127.45,-122.8 121.2,-121.62 121.83,-125.77"/>
</g>
<!-- src/js/main.ts&#45;&gt;public/css/components.css -->
<g id="edge18" class="edge">
<title>src/js/main.ts&#45;&gt;public/css/components.css</title>
<path fill="none" stroke="#000000" stroke-width="2" stroke-opacity="0.200000" d="M78.13,-359.32C81.21,-357.4 83.98,-354.99 86,-352 101.18,-329.52 76.96,-129.1 94,-108 96.83,-104.5 100.34,-101.74 104.24,-99.58"/>
<polygon fill="#000000" fill-opacity="0.200000" stroke="#000000" stroke-width="2" stroke-opacity="0.200000" points="105.22,-101.43 109.76,-96.98 103.44,-97.63 105.22,-101.43"/>
</g>
<!-- src/js/main.ts&#45;&gt;public/css/footer.css -->
<g id="edge19" class="edge">
<title>src/js/main.ts&#45;&gt;public/css/footer.css</title>
<path fill="none" stroke="#000000" stroke-width="2" stroke-opacity="0.200000" d="M78.14,-359.33C81.22,-357.4 83.98,-355 86,-352 103,-326.73 74.91,-101.73 94,-78 100.19,-70.31 109.67,-66.21 119.28,-64.11"/>
<polygon fill="#000000" fill-opacity="0.200000" stroke="#000000" stroke-width="2" stroke-opacity="0.200000" points="119.71,-66.17 125.25,-63.05 118.97,-62.03 119.71,-66.17"/>
</g>
<!-- src/js/main.ts&#45;&gt;public/css/main.css -->
<g id="edge20" class="edge">
<title>src/js/main.ts&#45;&gt;public/css/main.css</title>
<path fill="none" stroke="#000000" stroke-width="2" stroke-opacity="0.200000" d="M78.15,-359.33C81.23,-357.41 83.99,-355 86,-352 104.82,-323.94 72.86,-74.36 94,-48 100.51,-39.88 110.7,-35.76 120.85,-33.77"/>
<polygon fill="#000000" fill-opacity="0.200000" stroke="#000000" stroke-width="2" stroke-opacity="0.200000" points="121.19,-35.84 126.79,-32.83 120.53,-31.7 121.19,-35.84"/>
</g>
<!-- src/js/main.ts&#45;&gt;src/js/services/ -->
<g id="edge13" class="edge">
<title>src/js/main.ts&#45;&gt;src/js/services/</title>
<path fill="none" stroke="#000000" stroke-width="2" stroke-opacity="0.200000" d="M78.2,-364.84C83.43,-364.49 88.89,-364.18 94,-364 148.19,-362.07 161.85,-361.12 216,-364 253.24,-365.98 295.79,-370.9 324.21,-374.57"/>
<polygon fill="#000000" fill-opacity="0.200000" stroke="#000000" stroke-width="2" stroke-opacity="0.200000" points="324.19,-376.68 330.41,-375.38 324.74,-372.52 324.19,-376.68"/>
</g>
<!-- src/js/main.ts&#45;&gt;src/js/validators/ -->
<g id="edge15" class="edge">
<title>src/js/main.ts&#45;&gt;src/js/validators/</title>
<path fill="none" stroke="#000000" stroke-width="2" stroke-opacity="0.200000" d="M76.92,-357.93C109.99,-346.41 170.46,-327.18 224,-320 256.16,-315.69 264.56,-319.73 297,-320 304.9,-320.07 313.4,-320.18 321.42,-320.31"/>
<polygon fill="#000000" fill-opacity="0.200000" stroke="#000000" stroke-width="2" stroke-opacity="0.200000" points="321.41,-322.41 327.45,-320.41 321.48,-318.21 321.41,-322.41"/>
</g>
<!-- src/js/main.ts&#45;&gt;src/js/api/ -->
<g id="edge11" class="edge">
<title>src/js/main.ts&#45;&gt;src/js/api/</title>
<path fill="none" stroke="#000000" stroke-width="2" stroke-opacity="0.200000" d="M62.54,-376.23C70.56,-382.6 82.19,-390.53 94,-394 153.07,-411.35 337.58,-400.69 412.7,-395.42"/>
<polygon fill="#000000" fill-opacity="0.200000" stroke="#000000" stroke-width="2" stroke-opacity="0.200000" points="412.93,-397.51 418.77,-394.99 412.63,-393.32 412.93,-397.51"/>
</g>
<!-- src/js/main.ts&#45;&gt;src/js/utils/ -->
<g id="edge14" class="edge">
<title>src/js/main.ts&#45;&gt;src/js/utils/</title>
<path fill="none" stroke="#000000" stroke-width="2" stroke-opacity="0.200000" d="M78.26,-358.51C81.17,-356.72 83.85,-354.57 86,-352 95.68,-340.42 82.71,-329.01 94,-319 150.77,-268.69 187.64,-299 263.5,-299 263.5,-299 263.5,-299 447,-299 496.63,-299 545.85,-336.92 569.12,-357.72"/>
<polygon fill="#000000" fill-opacity="0.200000" stroke="#000000" stroke-width="2" stroke-opacity="0.200000" points="567.83,-359.39 573.68,-361.88 570.66,-356.29 567.83,-359.39"/>
</g>
<!-- src/js/main.ts&#45;&gt;src/js/controllers/ -->
<g id="edge12" class="edge">
<title>src/js/main.ts&#45;&gt;src/js/controllers/</title>
<path fill="none" stroke="#000000" stroke-width="2" stroke-opacity="0.200000" d="M78,-370.06C89.77,-371.44 103.9,-373.11 116.76,-374.62"/>
<polygon fill="#000000" fill-opacity="0.200000" stroke="#000000" stroke-width="2" stroke-opacity="0.200000" points="116.76,-376.73 122.96,-375.35 117.25,-372.56 116.76,-376.73"/>
</g>
<!-- src/js/main.ts&#45;&gt;src/modules/cart/ -->
<g id="edge21" class="edge">
<title>src/js/main.ts&#45;&gt;src/modules/cart/</title>
<path fill="none" stroke="#000000" stroke-width="2" stroke-opacity="0.200000" d="M58.55,-376.07C79.09,-403.63 145.58,-486.27 224,-515 260.03,-528.2 304.49,-515.34 331.65,-504.47"/>
<polygon fill="#000000" fill-opacity="0.200000" stroke="#000000" stroke-width="2" stroke-opacity="0.200000" points="332.76,-506.28 337.51,-502.05 331.16,-502.4 332.76,-506.28"/>
</g>
<!-- src/js/types.ts -->
<g id="node17" class="node">
<title>src/js/types.ts</title>
<g id="a_node17"><a xlink:href="src/js/types.ts" xlink:title="no&#45;orphans">
<path fill="#ccffcc" stroke="orange" d="M72,-346C72,-346 30,-346 30,-346 27,-346 24,-343 24,-340 24,-340 24,-334 24,-334 24,-331 27,-328 30,-328 30,-328 72,-328 72,-328 75,-328 78,-331 78,-334 78,-334 78,-340 78,-340 78,-343 75,-346 72,-346"/>
<text text-anchor="start" x="32.5" y="-334.8" font-family="Helvetica,sans-Serif" font-size="9.00" fill="orange">types.ts</text>
</a>
</g>
</g>
<!-- src/js/types/ -->
<g id="node18" class="node">
<title>src/js/types/</title>
<g id="a_node18"><a xlink:href="src/js/types/" xlink:title="types">
<polygon fill="#ccffcc" stroke="black" points="78,-316 26,-316 24,-314 24,-298 76,-298 78,-300 78,-316"/>
<polyline fill="none" stroke="black" points="76,-314 24,-314 "/>
<polyline fill="none" stroke="black" points="76,-314 76,-298 "/>
<polyline fill="none" stroke="black" points="76,-314 78,-316 "/>
<text text-anchor="start" x="38.5" y="-304.8" font-family="Helvetica,sans-Serif" font-size="9.00">types</text>
</a>
</g>
</g>
<!-- src/modules/profile/ -->
<g id="node20" class="node">
<title>src/modules/profile/</title>
<g id="a_node20"><a xlink:href="src/modules/profile/" xlink:title="no&#45;orphans">
<polygon fill="#ccffcc" stroke="orange" points="291.5,-470 239.5,-470 237.5,-468 237.5,-452 289.5,-452 291.5,-454 291.5,-470"/>
<polyline fill="none" stroke="orange" points="289.5,-468 237.5,-468 "/>
<polyline fill="none" stroke="orange" points="289.5,-468 289.5,-452 "/>
<polyline fill="none" stroke="orange" points="289.5,-468 291.5,-470 "/>
<text text-anchor="middle" x="264.5" y="-458.8" font-family="Helvetica,sans-Serif" font-size="9.00" fill="orange">profile</text>
</a>
</g>
</g>
<!-- src/modules/profile/&#45;&gt;@modules/profile/components/ -->
<g id="edge28" class="edge">
<title>src/modules/profile/&#45;&gt;@modules/profile/components/</title>
<g id="a_edge28"><a xlink:title="not&#45;to&#45;unresolvable">
<path fill="none" stroke="red" stroke-width="2" d="M279.18,-451.82C285.8,-446.57 293.14,-439.36 297,-431 310.44,-401.9 298.28,-318.34 305,-287 314.68,-241.84 337.33,-191.85 349.1,-167.68"/>
<polygon fill="red" stroke="red" stroke-width="2" points="351.08,-168.43 351.84,-162.12 347.31,-166.57 351.08,-168.43"/>
</a>
</g>
<text text-anchor="middle" x="259" y="-299.51" font-family="Helvetica,sans-Serif" font-size="9.00" fill="red">not&#45;to&#45;unresolvable</text>
</g>
<!-- src/modules/profile/&#45;&gt;src/js/actions/ -->
<g id="edge29" class="edge">
<title>src/modules/profile/&#45;&gt;src/js/actions/</title>
<path fill="none" stroke="#000000" stroke-width="2" stroke-opacity="0.200000" d="M264.5,-451.89C264.5,-418.14 264.5,-384.4 264.5,-350.65"/>
<polygon fill="#000000" fill-opacity="0.200000" stroke="#000000" stroke-width="2" stroke-opacity="0.200000" points="266.6,-350.35 264.5,-344.35 262.4,-350.35 266.6,-350.35"/>
</g>
<!-- src/modules/profile/&#45;&gt;src/js/core/ -->
<g id="edge27" class="edge">
<title>src/modules/profile/&#45;&gt;src/js/core/</title>
<path fill="none" stroke="#000000" stroke-width="2" stroke-opacity="0.200000" d="M291.67,-455.49C345.62,-443.99 465.55,-417.72 482,-408 491.64,-402.3 500.16,-393.01 506.26,-385.17"/>
<polygon fill="#000000" fill-opacity="0.200000" stroke="#000000" stroke-width="2" stroke-opacity="0.200000" points="508.19,-386.1 510.08,-380.03 504.82,-383.59 508.19,-386.1"/>
</g>
<!-- src/modules/profile/&#45;&gt;src/js/api/ -->
<g id="edge30" class="edge">
<title>src/modules/profile/&#45;&gt;src/js/api/</title>
<path fill="none" stroke="#000000" stroke-width="2" stroke-opacity="0.200000" d="M275.06,-451.78C285.59,-441.7 301.51,-426.74 305,-425 347.49,-403.75 364.08,-417.18 410,-405 411.31,-404.65 412.65,-404.28 413.99,-403.89"/>
<polygon fill="#000000" fill-opacity="0.200000" stroke="#000000" stroke-width="2" stroke-opacity="0.200000" points="414.77,-405.85 419.9,-402.08 413.54,-401.83 414.77,-405.85"/>
</g>
<!-- src/types/css.d.ts -->
<g id="node21" class="node">
<title>src/types/css.d.ts</title>
<g id="a_node21"><a xlink:href="src/types/css.d.ts" xlink:title="css.d.ts">
<path fill="#ccffcc" stroke="black" d="M72,-256C72,-256 30,-256 30,-256 27,-256 24,-253 24,-250 24,-250 24,-244 24,-244 24,-241 27,-238 30,-238 30,-238 72,-238 72,-238 75,-238 78,-241 78,-244 78,-244 78,-250 78,-250 78,-253 75,-256 72,-256"/>
<text text-anchor="start" x="33.5" y="-244.8" font-family="Helvetica,sans-Serif" font-size="9.00">css.d.ts</text>
</a>
</g>
</g>
</g>
</svg>
